<svg width="22" height="22" viewBox="0 0 16 18" fill="none" xmlns="http://www.w3.org/2000/svg">
<path fill-rule="evenodd" clip-rule="evenodd" d="M9.93251 0.237376C10.2372 0.317676 10.4924 0.525556 10.6343 0.808256C11.1656 1.87196 11.5627 2.51769 11.962 3.04129C12.3668 3.57149 12.7936 4.00487 13.4448 4.65497C14.9474 6.15867 15.6998 8.13098 15.6998 10.1C15.6998 12.069 14.9474 14.0413 13.4448 15.545C10.4374 18.5513 5.56221 18.5513 2.55481 15.545C1.05221 14.0413 0.299805 12.069 0.299805 10.1C0.299805 8.13098 1.05221 6.15867 2.55481 4.65497C2.86941 4.34037 3.3424 4.24686 3.7538 4.41736C4.1652 4.58676 4.43251 4.9883 4.43251 5.4327C4.43251 6.6647 4.5095 7.60299 4.8703 8.35209C5.0683 8.76349 5.37741 9.16611 5.90981 9.52581C6.03741 8.35871 6.27061 6.93639 6.58521 5.58779C6.83271 4.52519 7.1407 3.46478 7.5081 2.58038C7.6918 2.13708 7.89971 1.71685 8.13511 1.35275C8.36391 0.998551 8.65871 0.638913 9.03931 0.384813C9.30221 0.209913 9.62781 0.155976 9.93251 0.237376ZM10.3329 14.633C9.04481 15.9222 6.9548 15.9222 5.6667 14.633C5.0221 13.9895 4.6998 13.1448 4.6998 12.3C4.6998 12.3 5.6667 12.85 7.4498 12.85C7.4498 11.75 7.9998 8.44998 8.82481 7.89998C9.3748 8.99998 9.68941 9.32231 10.3329 9.96691C10.9775 10.6104 11.2998 11.4552 11.2998 12.3C11.2998 13.1448 10.9775 13.9895 10.3329 14.633Z" fill="white"/>
</svg>
